<svg xmlns="http://www.w3.org/2000/svg" width="36.339" height="24.453" viewBox="0 0 36.339 24.453">
  <g id="Group_781" data-name="Group 781" transform="translate(0.538 0.753)">
    <path id="Path_2988" data-name="Path 2988" d="M-.641,0H24.788" transform="translate(5.217 22.95)" fill="none" stroke="#fff" stroke-width="1.5"/>
    <path id="Path_2989" data-name="Path 2989" d="M.306,12.924S-4.267,10.455-4.382,6.25.967-.475.967-.475" transform="translate(4.597 10.108)" fill="none" stroke="#fff" stroke-width="1.5"/>
    <path id="Path_2990" data-name="Path 2990" d="M10.081-6.355s-5.205-.412-7.2.985S.986-.284.986-.284" transform="translate(4.167 10.583)" fill="none" stroke="#fff" stroke-width="1.5"/>
    <path id="Path_2991" data-name="Path 2991" d="M10.131-6.308a8.186,8.186,0,0,1,8.634-4.555c6.331.81,8.026,9.795,8.026,9.795" transform="translate(3.435 10.946)" fill="none" stroke="#fff" stroke-width="1.5"/>
    <path id="Path_2992" data-name="Path 2992" d="M27.838,12.83a6.357,6.357,0,0,0,5.189-6.6C32.9,2.561,29.792.442,27.886-.722" transform="translate(2.018 10.128)" fill="none" stroke="#fff" stroke-width="1.5"/>
    <circle id="Ellipse_983" data-name="Ellipse 983" cx="5" cy="5" r="5" transform="translate(5.709 4.135)" fill="#fff"/>
    <ellipse id="Ellipse_984" data-name="Ellipse 984" cx="5.5" cy="5" rx="5.5" ry="5" transform="translate(1.709 10.135)" fill="#fff"/>
    <ellipse id="Ellipse_985" data-name="Ellipse 985" cx="5.5" cy="4.5" rx="5.5" ry="4.5" transform="translate(-0.291 11.135)" fill="#fff"/>
    <ellipse id="Ellipse_986" data-name="Ellipse 986" cx="5.5" cy="4.5" rx="5.5" ry="4.5" transform="translate(0.709 13.135)" fill="#fff"/>
    <circle id="Ellipse_987" data-name="Ellipse 987" cx="9.5" cy="9.5" r="9.5" transform="translate(5.709 4.135)" fill="#fff"/>
    <ellipse id="Ellipse_988" data-name="Ellipse 988" cx="5" cy="4.5" rx="5" ry="4.5" transform="translate(4.709 14.135)" fill="#fff"/>
    <ellipse id="Ellipse_989" data-name="Ellipse 989" cx="5" cy="5.5" rx="5" ry="5.5" transform="translate(13.709 0.135)" fill="#fff"/>
    <ellipse id="Ellipse_990" data-name="Ellipse 990" cx="5" cy="5.5" rx="5" ry="5.5" transform="translate(16.709 0.135)" fill="#fff"/>
    <ellipse id="Ellipse_991" data-name="Ellipse 991" cx="5" cy="5.5" rx="5" ry="5.5" transform="translate(17.709 1.135)" fill="#fff"/>
    <ellipse id="Ellipse_992" data-name="Ellipse 992" cx="5" cy="5.5" rx="5" ry="5.5" transform="translate(19.709 2.135)" fill="#fff"/>
    <circle id="Ellipse_993" data-name="Ellipse 993" cx="5" cy="5" r="5" transform="translate(20.709 5.135)" fill="#fff"/>
    <ellipse id="Ellipse_994" data-name="Ellipse 994" cx="5.5" cy="5" rx="5.5" ry="5" transform="translate(20.709 8.135)" fill="#fff"/>
    <ellipse id="Ellipse_995" data-name="Ellipse 995" cx="5.5" cy="5" rx="5.5" ry="5" transform="translate(23.709 10.135)" fill="#fff"/>
    <ellipse id="Ellipse_996" data-name="Ellipse 996" cx="5" cy="4.5" rx="5" ry="4.5" transform="translate(24.709 12.135)" fill="#fff"/>
    <ellipse id="Ellipse_997" data-name="Ellipse 997" cx="5.5" cy="4.5" rx="5.5" ry="4.5" transform="translate(22.709 14.135)" fill="#fff"/>
    <ellipse id="Ellipse_998" data-name="Ellipse 998" cx="5" cy="4.5" rx="5" ry="4.5" transform="translate(16.709 14.135)" fill="#fff"/>
  </g>
</svg>
