<svg xmlns="http://www.w3.org/2000/svg" xmlns:xlink="http://www.w3.org/1999/xlink" width="3088.98" height="3004.77" viewBox="0 0 3088.98 3004.77"><defs><filter id="a" x="1413.5" y="762.269" width="119" height="119" filterUnits="userSpaceOnUse"><feOffset input="SourceAlpha"/><feGaussianBlur stdDeviation="16.5" result="b"/><feFlood flood-color="#fff" flood-opacity="0.161"/><feComposite operator="in" in2="b"/><feComposite in="SourceGraphic"/></filter><filter id="c" x="1413.5" y="762.269" width="119" height="119" filterUnits="userSpaceOnUse"><feOffset input="SourceAlpha"/><feGaussianBlur stdDeviation="16.5" result="d"/><feFlood flood-color="#fff" flood-opacity="0.161"/><feComposite operator="in" in2="d"/><feComposite in="SourceGraphic"/></filter><filter id="e" x="1413.5" y="762.269" width="119" height="119" filterUnits="userSpaceOnUse"><feOffset input="SourceAlpha"/><feGaussianBlur stdDeviation="16.5" result="f"/><feFlood flood-color="#fff" flood-opacity="0.161"/><feComposite operator="in" in2="f"/><feComposite in="SourceGraphic"/></filter><filter id="g" x="1413.5" y="762.269" width="119" height="119" filterUnits="userSpaceOnUse"><feOffset input="SourceAlpha"/><feGaussianBlur stdDeviation="16.5" result="h"/><feFlood flood-color="#fff" flood-opacity="0.161"/><feComposite operator="in" in2="h"/><feComposite in="SourceGraphic"/></filter><filter id="i" x="1634.5" y="1414.269" width="119" height="119" filterUnits="userSpaceOnUse"><feOffset input="SourceAlpha"/><feGaussianBlur stdDeviation="16.5" result="j"/><feFlood flood-color="#fff" flood-opacity="0.161"/><feComposite operator="in" in2="j"/><feComposite in="SourceGraphic"/></filter><filter id="k" x="1634.5" y="1414.269" width="119" height="119" filterUnits="userSpaceOnUse"><feOffset input="SourceAlpha"/><feGaussianBlur stdDeviation="16.5" result="l"/><feFlood flood-color="#fff" flood-opacity="0.161"/><feComposite operator="in" in2="l"/><feComposite in="SourceGraphic"/></filter><filter id="m" x="1634.5" y="1414.269" width="119" height="119" filterUnits="userSpaceOnUse"><feOffset input="SourceAlpha"/><feGaussianBlur stdDeviation="16.5" result="n"/><feFlood flood-color="#fff" flood-opacity="0.161"/><feComposite operator="in" in2="n"/><feComposite in="SourceGraphic"/></filter><filter id="o" x="1634.5" y="1414.269" width="119" height="119" filterUnits="userSpaceOnUse"><feOffset input="SourceAlpha"/><feGaussianBlur stdDeviation="16.5" result="p"/><feFlood flood-color="#fff" flood-opacity="0.161"/><feComposite operator="in" in2="p"/><feComposite in="SourceGraphic"/></filter><filter id="q" x="846.5" y="1677.269" width="119" height="119" filterUnits="userSpaceOnUse"><feOffset input="SourceAlpha"/><feGaussianBlur stdDeviation="16.5" result="r"/><feFlood flood-color="#fff" flood-opacity="0.161"/><feComposite operator="in" in2="r"/><feComposite in="SourceGraphic"/></filter><filter id="s" x="846.5" y="1677.269" width="119" height="119" filterUnits="userSpaceOnUse"><feOffset input="SourceAlpha"/><feGaussianBlur stdDeviation="16.5" result="t"/><feFlood flood-color="#fff" flood-opacity="0.161"/><feComposite operator="in" in2="t"/><feComposite in="SourceGraphic"/></filter><filter id="u" x="846.5" y="1677.269" width="119" height="119" filterUnits="userSpaceOnUse"><feOffset input="SourceAlpha"/><feGaussianBlur stdDeviation="16.5" result="v"/><feFlood flood-color="#fff" flood-opacity="0.161"/><feComposite operator="in" in2="v"/><feComposite in="SourceGraphic"/></filter><filter id="w" x="846.5" y="1677.269" width="119" height="119" filterUnits="userSpaceOnUse"><feOffset input="SourceAlpha"/><feGaussianBlur stdDeviation="16.5" result="x"/><feFlood flood-color="#fff" flood-opacity="0.161"/><feComposite operator="in" in2="x"/><feComposite in="SourceGraphic"/></filter></defs><g transform="translate(337 571.769)"><g transform="translate(-268.496 -1599.852)" opacity="0.05"><path d="M294.142,148.953c48.4-71.387,153.567-71.387,201.963,0L661.127,392.369c54.919,81.009-3.111,190.46-100.982,190.46H230.1c-97.87,0-155.9-109.45-100.982-190.46Z" transform="matrix(0.766, 0.643, -0.643, 0.766, 1433.131, 1028.082)" fill="#fbf7f0" opacity="0.47"/></g><g transform="translate(847 899)" fill="none" stroke="#707070" stroke-width="1"><circle cx="461" cy="461" r="461" stroke="none"/><circle cx="461" cy="461" r="460.5" fill="none"/></g><g transform="translate(543 601)" fill="none" stroke="#707070" stroke-width="1"><circle cx="758.5" cy="758.5" r="758.5" stroke="none"/><circle cx="758.5" cy="758.5" r="758" fill="none"/></g><g transform="translate(191 240)" fill="none" stroke="#707070" stroke-width="1"><circle cx="1096.5" cy="1096.5" r="1096.5" stroke="none"/><circle cx="1096.5" cy="1096.5" r="1096" fill="none"/></g><g transform="matrix(1, 0, 0, 1, -337, -571.77)" filter="url(#a)"><circle cx="10" cy="10" r="10" transform="translate(1463 811.77)" fill="#908415"/></g><g transform="matrix(1, 0, 0, 1, -337, -571.77)" filter="url(#c)"><circle cx="10" cy="10" r="10" transform="translate(1463 811.77)" fill="#908415"/></g><g transform="matrix(1, 0, 0, 1, -337, -571.77)" filter="url(#e)"><circle cx="10" cy="10" r="10" transform="translate(1463 811.77)" fill="#908415"/></g><g transform="matrix(1, 0, 0, 1, -337, -571.77)" filter="url(#g)"><circle cx="10" cy="10" r="10" transform="translate(1463 811.77)" fill="#908415"/></g><g transform="translate(1754.613 -1668.428) rotate(30)" opacity="0.05"><path d="M294.142,148.953c48.4-71.387,153.567-71.387,201.963,0L661.127,392.369c54.919,81.009-3.111,190.46-100.982,190.46H230.1c-97.87,0-155.9-109.45-100.982-190.46Z" transform="matrix(0.766, 0.643, -0.643, 0.766, 1433.131, 1028.082)" fill="#fbf7f0" opacity="0.47"/></g><g transform="translate(-1395.496 -297.852)" opacity="0.05"><path d="M294.142,148.953c48.4-71.387,153.567-71.387,201.963,0L661.127,392.369c54.919,81.009-3.111,190.46-100.982,190.46H230.1c-97.87,0-155.9-109.45-100.982-190.46Z" transform="matrix(0.766, 0.643, -0.643, 0.766, 1433.131, 1028.082)" fill="#fbf7f0" opacity="0.47"/></g><g transform="translate(-176.629 -2198.032) rotate(40)" opacity="0.05"><path d="M294.142,148.953c48.4-71.387,153.567-71.387,201.963,0L661.127,392.369c54.919,81.009-3.111,190.46-100.982,190.46H230.1c-97.87,0-155.9-109.45-100.982-190.46Z" transform="matrix(0.766, 0.643, -0.643, 0.766, 1433.131, 1028.082)" fill="#fbf7f0" opacity="0.47"/></g><g transform="translate(-568.941 277.659) rotate(-17)" opacity="0.05"><path d="M294.142,148.953c48.4-71.387,153.567-71.387,201.963,0L661.127,392.369c54.919,81.009-3.111,190.46-100.982,190.46H230.1c-97.87,0-155.9-109.45-100.982-190.46Z" transform="matrix(0.766, 0.643, -0.643, 0.766, 1433.131, 1028.082)" fill="#fbf7f0" opacity="0.47"/></g><g transform="translate(221 652)"><g transform="matrix(1, 0, 0, 1, -558, -1223.77)" filter="url(#i)"><circle cx="10" cy="10" r="10" transform="translate(1684 1463.77)" fill="#908415"/></g><g transform="matrix(1, 0, 0, 1, -558, -1223.77)" filter="url(#k)"><circle cx="10" cy="10" r="10" transform="translate(1684 1463.77)" fill="#908415"/></g><g transform="matrix(1, 0, 0, 1, -558, -1223.77)" filter="url(#m)"><circle cx="10" cy="10" r="10" transform="translate(1684 1463.77)" fill="#908415"/></g><g transform="matrix(1, 0, 0, 1, -558, -1223.77)" filter="url(#o)"><circle cx="10" cy="10" r="10" transform="translate(1684 1463.77)" fill="#908415"/></g></g><g transform="translate(-567 915)"><g transform="matrix(1, 0, 0, 1, 230, -1486.77)" filter="url(#q)"><circle cx="10" cy="10" r="10" transform="translate(896 1726.77)" fill="#908415"/></g><g transform="matrix(1, 0, 0, 1, 230, -1486.77)" filter="url(#s)"><circle cx="10" cy="10" r="10" transform="translate(896 1726.77)" fill="#908415"/></g><g transform="matrix(1, 0, 0, 1, 230, -1486.77)" filter="url(#u)"><circle cx="10" cy="10" r="10" transform="translate(896 1726.77)" fill="#908415"/></g><g transform="matrix(1, 0, 0, 1, 230, -1486.77)" filter="url(#w)"><circle cx="10" cy="10" r="10" transform="translate(896 1726.77)" fill="#908415"/></g></g></g></svg>