<svg xmlns="http://www.w3.org/2000/svg" width="38.513" height="49.622" viewBox="0 0 38.513 49.622">
  <g id="Group_1634" data-name="Group 1634" transform="translate(-1572.143 -625.967)">
    <path id="Path_3144" data-name="Path 3144" d="M0,10S-.089,4.955,1.822,2.352,9,0,9,0" transform="translate(1591.5 627.5)" fill="none" stroke="#9fa3b0" stroke-linecap="round" stroke-width="3"/>
    <path id="Path_3145" data-name="Path 3145" d="M9-.007s.089,5.045-1.822,7.648S0,9.993,0,9.993" transform="translate(1591.5 627.5)" fill="none" stroke="#9fa3b0" stroke-linecap="round" stroke-width="3"/>
    <path id="Path_3146" data-name="Path 3146" d="M.813.6S-4.71,5.3-4.21,9.8s6.349,7.482,6.349,7.482" transform="translate(1606.5 645.5)" fill="none" stroke="#9fa3b0" stroke-linecap="round" stroke-width="3"/>
    <line id="Line_2814" data-name="Line 2814" y1="10" x2="7" transform="translate(1601.5 663.5)" fill="none" stroke="#9fa3b0" stroke-linecap="round" stroke-width="3"/>
    <path id="Path_3147" data-name="Path 3147" d="M0,1A3.678,3.678,0,0,0,2.048,1,20.483,20.483,0,0,1,7.813-.229C9.977-.236,12.2.58,14.264,1c.3.064,2.158-.014,2.557,0" transform="translate(1584.5 672.5)" fill="none" stroke="#9fa3b0" stroke-linecap="round" stroke-width="3"/>
    <path id="Path_3148" data-name="Path 3148" d="M1,31s-2.286-.071-5.242-3.366c-2.3-2.561-5.289-8.169-5.408-11.858-.1-3.131-.957-7.935,1.105-10.85A16.279,16.279,0,0,1-3.493.714C-2.373.138-1.6.3-.9-.062" transform="translate(1583.5 642.5)" fill="none" stroke="#9fa3b0" stroke-linecap="round" stroke-width="3"/>
    <path id="Path_3149" data-name="Path 3149" d="M16,0a11.144,11.144,0,0,0-2.394.58,8.12,8.12,0,0,1-4.144,1.23C7.486,1.934,4.6,1.27,2.433,1A7.7,7.7,0,0,0,0,1" transform="translate(1582.5 641.5)" fill="none" stroke="#9fa3b0" stroke-linecap="round" stroke-width="3"/>
    <path id="Path_3150" data-name="Path 3150" d="M0,0A28.373,28.373,0,0,1,5.961,1.68,7.236,7.236,0,0,1,8.881,4.373" transform="translate(1598.5 641.5)" fill="none" stroke="#9fa3b0" stroke-linecap="round" stroke-width="3"/>
  </g>
</svg>
