<svg xmlns="http://www.w3.org/2000/svg" width="65.301" height="63.105" viewBox="0 0 65.301 63.105">
  <g id="Group_1633" data-name="Group 1633" transform="translate(-1199.082 -613.18)">
    <g id="Polygon_167" data-name="Polygon 167" transform="translate(1199.082 638.18) rotate(-30)" fill="none" stroke-linecap="round">
      <path d="M21.522,6.121a4,4,0,0,1,6.956,0L46.6,38.024A4,4,0,0,1,43.127,44H6.873A4,4,0,0,1,3.4,38.024Z" stroke="none"/>
      <path d="M 25 7.097011566162109 C 24.78264999389648 7.097011566162109 24.38068008422852 7.162750244140625 24.13054084777832 7.603000640869141 L 6.003849029541016 39.50600051879883 C 5.756671905517578 39.94102096557617 5.900989532470703 40.3173713684082 6.009010314941406 40.50299072265625 C 6.117031097412109 40.6886100769043 6.372959136962891 41 6.873298645019531 41 L 43.12670135498047 41 C 43.62704086303711 41 43.88296890258789 40.68860244750977 43.99098968505859 40.50299072265625 C 44.09902191162109 40.3173713684082 44.24333190917969 39.94102096557617 43.99615859985352 39.50600051879883 L 25.86944961547852 7.602993011474609 C 25.61931037902832 7.162750244140625 25.21734046936035 7.097011566162109 25 7.097011566162109 M 24.99999809265137 4.097015380859375 C 26.3555850982666 4.097015380859375 27.7111701965332 4.77166748046875 28.47781944274902 6.1209716796875 L 46.60453033447266 38.02397155761719 C 48.11962127685547 40.69053268432617 46.19364166259766 44 43.12670135498047 44 L 6.873298645019531 44 C 3.806358337402344 44 1.880378723144531 40.69053268432617 3.395481109619141 38.02397155761719 L 21.52216911315918 6.1209716796875 C 22.2888240814209 4.77166748046875 23.64441299438477 4.097015380859375 24.99999809265137 4.097015380859375 Z" stroke="none" fill="#9fa3b0"/>
    </g>
    <line id="Line_2812" data-name="Line 2812" y1="26" x2="26" transform="translate(1225.5 644.5)" fill="none" stroke="#9fa3b0" stroke-width="3"/>
    <line id="Line_2813" data-name="Line 2813" x1="24" y1="25" transform="translate(1227.5 631.5)" fill="none" stroke="#9fa3b0" stroke-width="3"/>
  </g>
</svg>
