<svg xmlns="http://www.w3.org/2000/svg" width="26.97" height="20.227" viewBox="0 0 26.97 20.227">
  <g id="Group_1003" data-name="Group 1003" transform="translate(11544.7 2985)">
    <g id="Rectangle_1304" data-name="Rectangle 1304" transform="translate(-11544.7 -2985)" fill="none" stroke="#1a3b71" stroke-width="1.5">
      <path d="M2,0H24.97a2,2,0,0,1,2,2V17.227a3,3,0,0,1-3,3H3a3,3,0,0,1-3-3V2A2,2,0,0,1,2,0Z" stroke="none"/>
      <path d="M2,.75H24.97A1.25,1.25,0,0,1,26.22,2V17.227a2.25,2.25,0,0,1-2.25,2.25H3a2.25,2.25,0,0,1-2.25-2.25V2A1.25,1.25,0,0,1,2,.75Z" fill="none"/>
    </g>
    <line id="Line_2413" data-name="Line 2413" x1="11.799" y2="10.114" transform="translate(-11530.99 -2983.314)" fill="none" stroke="#1a3b71" stroke-linecap="round" stroke-width="1.5"/>
    <line id="Line_2414" data-name="Line 2414" x2="12.361" y2="10.114" transform="translate(-11543.352 -2983.314)" fill="none" stroke="#1a3b71" stroke-linecap="round" stroke-width="1.5"/>
  </g>
</svg>
