<svg xmlns="http://www.w3.org/2000/svg" width="24.835" height="26.471" viewBox="0 0 24.835 26.471">
  <g id="Group_1633" data-name="Group 1633" transform="translate(-1034.642 -311)">
    <g id="Ellipse_213" data-name="Ellipse 213" transform="translate(1041 311)" fill="none" stroke="#1a3b71" stroke-width="1.5">
      <ellipse cx="6.5" cy="8" rx="6.5" ry="8" stroke="none"/>
      <ellipse cx="6.5" cy="8" rx="5.75" ry="7.25" fill="none"/>
    </g>
    <path id="Path_300" data-name="Path 300" d="M.919-4.4S.7-9.021,3.792-11.509c1.97-1.585,6.294-1.478,8.825-1.478,2.354,0,6.992.006,9.12,1.666C24.712-9,24.177-4,24.177-4" transform="translate(1034.488 339.622)" fill="none" stroke="#1a3b71" stroke-width="1.5"/>
    <path id="Path_301" data-name="Path 301" d="M23.2-1.49s.074.92-.7.992c-1.948.183-7.393.653-11.617.653C7.11.155,3.246.125.9-.605c-1.041-.324-1-.861-1-.861" transform="translate(1035.5 336.566)" fill="none" stroke="#1a3b71" stroke-width="1.5"/>
  </g>
</svg>
