<svg xmlns="http://www.w3.org/2000/svg" width="36.339" height="24.453" viewBox="0 0 36.339 24.453">
  <g id="Group_783" data-name="Group 783" transform="translate(0.751 0.753)">
    <path id="Path_7" data-name="Path 7" d="M-.641,0H24.788" transform="translate(5.004 22.95)" fill="none" stroke="#fff" stroke-width="1.5"/>
    <path id="Path_3" data-name="Path 3" d="M.306,12.924S-4.267,10.455-4.382,6.25.967-.475.967-.475" transform="translate(4.384 10.108)" fill="none" stroke="#fff" stroke-width="1.5"/>
    <path id="Path_4" data-name="Path 4" d="M10.081-6.355s-5.205-.412-7.2.985S.986-.284.986-.284" transform="translate(3.954 10.583)" fill="none" stroke="#fff" stroke-width="1.5"/>
    <path id="Path_5" data-name="Path 5" d="M10.131-6.308a8.186,8.186,0,0,1,8.634-4.555c6.331.81,8.026,9.795,8.026,9.795" transform="translate(3.222 10.946)" fill="none" stroke="#fff" stroke-width="1.5"/>
    <path id="Path_6" data-name="Path 6" d="M27.838,12.83a6.357,6.357,0,0,0,5.189-6.6C32.9,2.561,29.792.442,27.886-.722" transform="translate(1.805 10.128)" fill="none" stroke="#fff" stroke-width="1.5"/>
  </g>
</svg>
